# Blender v2.82 (sub 7) OBJ File: ''
# www.blender.org
mtllib cone.mtl
o Cone_Cone.004
v -0.000001 -0.015503 -1.588531
v -0.000001 1.984497 -0.000001
v 0.077945 -0.015503 -1.586617
v 0.155703 -0.015503 -1.580882
v 0.233085 -0.015503 -1.571337
v 0.309906 -0.015503 -1.558008
v 0.385981 -0.015503 -1.540925
v 0.461125 -0.015503 -1.520129
v 0.535159 -0.015503 -1.495672
v 0.607903 -0.015503 -1.467611
v 0.679183 -0.015503 -1.436015
v 0.748827 -0.015503 -1.400959
v 0.816667 -0.015503 -1.362528
v 0.882539 -0.015503 -1.320815
v 0.946286 -0.015503 -1.275920
v 1.007752 -0.015503 -1.227951
v 1.066791 -0.015503 -1.177024
v 1.123260 -0.015503 -1.123261
v 1.177022 -0.015503 -1.066792
v 1.227950 -0.015503 -1.007753
v 1.275919 -0.015503 -0.946287
v 1.320814 -0.015503 -0.882541
v 1.362527 -0.015503 -0.816668
v 1.400958 -0.015503 -0.748828
v 1.436013 -0.015503 -0.679185
v 1.467610 -0.015503 -0.607905
v 1.495671 -0.015503 -0.535160
v 1.520128 -0.015503 -0.461126
v 1.540923 -0.015503 -0.385982
v 1.558006 -0.015503 -0.309907
v 1.571336 -0.015503 -0.233086
v 1.580880 -0.015503 -0.155703
v 1.586616 -0.015503 -0.077946
v 1.588529 -0.015503 0.000000
v 1.586616 -0.015503 0.077945
v 1.580880 -0.015503 0.155703
v 1.571336 -0.015503 0.233086
v 1.558006 -0.015503 0.309907
v 1.540923 -0.015503 0.385981
v 1.520128 -0.015503 0.461126
v 1.495670 -0.015503 0.535160
v 1.467609 -0.015503 0.607904
v 1.436013 -0.015503 0.679184
v 1.400957 -0.015503 0.748827
v 1.362527 -0.015503 0.816667
v 1.320813 -0.015503 0.882539
v 1.275919 -0.015503 0.946285
v 1.227950 -0.015503 1.007752
v 1.177023 -0.015503 1.066790
v 1.123260 -0.015503 1.123259
v 1.066791 -0.015504 1.177022
v 1.007753 -0.015504 1.227949
v 0.946286 -0.015504 1.275918
v 0.882540 -0.015504 1.320813
v 0.816668 -0.015504 1.362526
v 0.748828 -0.015504 1.400957
v 0.679185 -0.015504 1.436013
v 0.607905 -0.015504 1.467609
v 0.535161 -0.015504 1.495670
v 0.461127 -0.015504 1.520127
v 0.385983 -0.015504 1.540922
v 0.309908 -0.015504 1.558006
v 0.233087 -0.015504 1.571335
v 0.155705 -0.015504 1.580880
v 0.077948 -0.015504 1.586616
v 0.000002 -0.015504 1.588529
v -0.077943 -0.015504 1.586616
v -0.155701 -0.015504 1.580880
v -0.233083 -0.015504 1.571336
v -0.309904 -0.015504 1.558007
v -0.385978 -0.015504 1.540924
v -0.461123 -0.015504 1.520129
v -0.535157 -0.015504 1.495671
v -0.607901 -0.015504 1.467611
v -0.679181 -0.015504 1.436015
v -0.748825 -0.015504 1.400960
v -0.816664 -0.015504 1.362529
v -0.882537 -0.015504 1.320816
v -0.946283 -0.015504 1.275921
v -1.007750 -0.015504 1.227953
v -1.066788 -0.015504 1.177026
v -1.123257 -0.015503 1.123263
v -1.177020 -0.015503 1.066795
v -1.227948 -0.015503 1.007756
v -1.275917 -0.015503 0.946289
v -1.320812 -0.015503 0.882543
v -1.362526 -0.015503 0.816671
v -1.400957 -0.015503 0.748831
v -1.436013 -0.015503 0.679187
v -1.467609 -0.015503 0.607907
v -1.495670 -0.015503 0.535162
v -1.520128 -0.015503 0.461129
v -1.540924 -0.015503 0.385984
v -1.558007 -0.015503 0.309909
v -1.571337 -0.015503 0.233088
v -1.580881 -0.015503 0.155705
v -1.586617 -0.015503 0.077947
v -1.588531 -0.015503 0.000001
v -1.586617 -0.015503 -0.077944
v -1.580882 -0.015503 -0.155702
v -1.571337 -0.015503 -0.233085
v -1.558008 -0.015503 -0.309906
v -1.540925 -0.015503 -0.385981
v -1.520129 -0.015503 -0.461126
v -1.495672 -0.015503 -0.535160
v -1.467611 -0.015503 -0.607904
v -1.436015 -0.015503 -0.679185
v -1.400959 -0.015503 -0.748829
v -1.362528 -0.015503 -0.816669
v -1.320815 -0.015503 -0.882541
v -1.275920 -0.015503 -0.946287
v -1.227950 -0.015503 -1.007754
v -1.177023 -0.015503 -1.066793
v -1.123260 -0.015503 -1.123262
v -1.066791 -0.015503 -1.177025
v -1.007752 -0.015503 -1.227952
v -0.946285 -0.015503 -1.275921
v -0.882539 -0.015503 -1.320816
v -0.816666 -0.015503 -1.362530
v -0.748826 -0.015503 -1.400960
v -0.679182 -0.015503 -1.436016
v -0.607902 -0.015503 -1.467612
v -0.535157 -0.015503 -1.495673
v -0.461123 -0.015503 -1.520130
v -0.385978 -0.015503 -1.540925
v -0.309904 -0.015503 -1.558008
v -0.233082 -0.015503 -1.571338
v -0.155699 -0.015503 -1.580882
v -0.077942 -0.015503 -1.586617
vt 0.250000 0.490000
vt 0.250000 0.250000
vt 0.261776 0.489711
vt 0.273524 0.488844
vt 0.285215 0.487402
vt 0.296822 0.485388
vt 0.308315 0.482808
vt 0.319668 0.479666
vt 0.330854 0.475971
vt 0.341844 0.471731
vt 0.352613 0.466957
vt 0.363135 0.461661
vt 0.373385 0.455855
vt 0.383337 0.449553
vt 0.392968 0.442770
vt 0.402254 0.435522
vt 0.411174 0.427828
vt 0.419706 0.419706
vt 0.427828 0.411174
vt 0.435523 0.402254
vt 0.442770 0.392968
vt 0.449553 0.383337
vt 0.455855 0.373385
vt 0.461661 0.363135
vt 0.466957 0.352613
vt 0.471731 0.341844
vt 0.475971 0.330853
vt 0.479666 0.319668
vt 0.482808 0.308315
vt 0.485388 0.296822
vt 0.487402 0.285215
vt 0.488844 0.273524
vt 0.489711 0.261776
vt 0.490000 0.250000
vt 0.489711 0.238224
vt 0.488844 0.226476
vt 0.487402 0.214785
vt 0.485388 0.203178
vt 0.482807 0.191685
vt 0.479666 0.180332
vt 0.475971 0.169146
vt 0.471731 0.158156
vt 0.466957 0.147387
vt 0.461661 0.136865
vt 0.455855 0.126615
vt 0.449553 0.116663
vt 0.442770 0.107032
vt 0.435522 0.097746
vt 0.427828 0.088826
vt 0.419706 0.080294
vt 0.411174 0.072172
vt 0.402254 0.064478
vt 0.392968 0.057230
vt 0.383337 0.050447
vt 0.373385 0.044145
vt 0.363135 0.038339
vt 0.352613 0.033043
vt 0.341844 0.028269
vt 0.330854 0.024030
vt 0.319669 0.020334
vt 0.308316 0.017193
vt 0.296822 0.014612
vt 0.285216 0.012598
vt 0.273524 0.011156
vt 0.261777 0.010289
vt 0.250000 0.010000
vt 0.238224 0.010289
vt 0.226476 0.011156
vt 0.214785 0.012598
vt 0.203179 0.014611
vt 0.191685 0.017192
vt 0.180332 0.020334
vt 0.169147 0.024029
vt 0.158157 0.028269
vt 0.147387 0.033042
vt 0.136865 0.038339
vt 0.126616 0.044145
vt 0.116664 0.050447
vt 0.107033 0.057230
vt 0.097746 0.064477
vt 0.088826 0.072171
vt 0.080295 0.080294
vt 0.072172 0.088825
vt 0.064478 0.097745
vt 0.057231 0.107032
vt 0.050448 0.116663
vt 0.044145 0.126615
vt 0.038339 0.136864
vt 0.033043 0.147386
vt 0.028269 0.158155
vt 0.024030 0.169146
vt 0.020334 0.180331
vt 0.017193 0.191684
vt 0.014612 0.203178
vt 0.012598 0.214784
vt 0.011156 0.226475
vt 0.010289 0.238223
vt 0.010000 0.250000
vt 0.010289 0.261776
vt 0.011156 0.273524
vt 0.012598 0.285215
vt 0.014611 0.296821
vt 0.017192 0.308315
vt 0.020334 0.319668
vt 0.024029 0.330853
vt 0.028269 0.341844
vt 0.033043 0.352613
vt 0.038339 0.363135
vt 0.044145 0.373385
vt 0.050447 0.383337
vt 0.057230 0.392968
vt 0.064478 0.402254
vt 0.072172 0.411174
vt 0.080295 0.419706
vt 0.088826 0.427828
vt 0.097746 0.435523
vt 0.107032 0.442770
vt 0.116663 0.449553
vt 0.126616 0.455855
vt 0.136865 0.461661
vt 0.147387 0.466958
vt 0.158156 0.471731
vt 0.169147 0.475971
vt 0.180332 0.479666
vt 0.191685 0.482808
vt 0.203179 0.485389
vt 0.214785 0.487402
vt 0.226477 0.488844
vt 0.238224 0.489711
vt 0.761777 0.010289
vt 0.510289 0.238223
vt 0.738224 0.489711
vt 0.750000 0.490000
vt 0.761776 0.489711
vt 0.773524 0.488844
vt 0.785215 0.487402
vt 0.796822 0.485388
vt 0.830854 0.475971
vt 0.808315 0.482808
vt 0.819668 0.479666
vt 0.841844 0.471731
vt 0.852613 0.466957
vt 0.863135 0.461661
vt 0.873385 0.455855
vt 0.883337 0.449553
vt 0.911174 0.427828
vt 0.892968 0.442770
vt 0.902254 0.435522
vt 0.919706 0.419706
vt 0.927828 0.411174
vt 0.935523 0.402254
vt 0.942770 0.392968
vt 0.949553 0.383337
vt 0.955855 0.373385
vt 0.961661 0.363135
vt 0.966957 0.352613
vt 0.971731 0.341844
vt 0.975971 0.330853
vt 0.979666 0.319668
vt 0.982808 0.308315
vt 0.985389 0.296822
vt 0.987402 0.285215
vt 0.988844 0.273524
vt 0.989711 0.261776
vt 0.990000 0.250000
vt 0.989711 0.238224
vt 0.988844 0.226476
vt 0.987402 0.214785
vt 0.985388 0.203178
vt 0.982807 0.191685
vt 0.979666 0.180332
vt 0.975971 0.169146
vt 0.971731 0.158156
vt 0.966957 0.147387
vt 0.961661 0.136865
vt 0.955855 0.126615
vt 0.949553 0.116663
vt 0.927828 0.088826
vt 0.942770 0.107032
vt 0.935522 0.097746
vt 0.919706 0.080294
vt 0.892968 0.057230
vt 0.911174 0.072172
vt 0.902254 0.064478
vt 0.883337 0.050447
vt 0.852613 0.033043
vt 0.873385 0.044145
vt 0.863135 0.038339
vt 0.841844 0.028269
vt 0.808316 0.017193
vt 0.830854 0.024030
vt 0.819669 0.020334
vt 0.796822 0.014612
vt 0.785216 0.012598
vt 0.773525 0.011156
vt 0.750000 0.010000
vt 0.738224 0.010289
vt 0.726476 0.011156
vt 0.714785 0.012598
vt 0.703179 0.014611
vt 0.691685 0.017192
vt 0.680332 0.020334
vt 0.669147 0.024029
vt 0.658157 0.028269
vt 0.626616 0.044145
vt 0.647387 0.033042
vt 0.636865 0.038339
vt 0.616664 0.050447
vt 0.607033 0.057230
vt 0.597746 0.064477
vt 0.588826 0.072171
vt 0.580295 0.080294
vt 0.572172 0.088825
vt 0.564478 0.097745
vt 0.557231 0.107032
vt 0.550448 0.116663
vt 0.533043 0.147386
vt 0.544145 0.126615
vt 0.538339 0.136864
vt 0.528269 0.158155
vt 0.517193 0.191684
vt 0.524030 0.169146
vt 0.520334 0.180331
vt 0.514612 0.203178
vt 0.512598 0.214784
vt 0.511156 0.226475
vt 0.510000 0.250000
vt 0.510289 0.261776
vt 0.511156 0.273524
vt 0.512598 0.285215
vt 0.514611 0.296821
vt 0.524029 0.330853
vt 0.517192 0.308315
vt 0.520334 0.319668
vt 0.528269 0.341844
vt 0.544145 0.373385
vt 0.533043 0.352613
vt 0.538339 0.363135
vt 0.550447 0.383337
vt 0.557230 0.392968
vt 0.564478 0.402254
vt 0.572172 0.411174
vt 0.580294 0.419706
vt 0.588826 0.427828
vt 0.597746 0.435523
vt 0.607032 0.442770
vt 0.616663 0.449553
vt 0.626616 0.455855
vt 0.636865 0.461661
vt 0.647387 0.466958
vt 0.658156 0.471731
vt 0.669147 0.475971
vt 0.680332 0.479666
vt 0.691685 0.482808
vt 0.703179 0.485389
vt 0.714785 0.487402
vt 0.726477 0.488844
vn 0.0192 0.6218 -0.7829
vn 0.0576 0.6218 -0.7810
vn 0.0959 0.6218 -0.7773
vn 0.1339 0.6218 -0.7716
vn 0.1716 0.6218 -0.7641
vn 0.2089 0.6218 -0.7548
vn 0.2457 0.6218 -0.7436
vn 0.2819 0.6218 -0.7307
vn 0.3174 0.6218 -0.7160
vn 0.3521 0.6218 -0.6995
vn 0.3860 0.6218 -0.6814
vn 0.4190 0.6218 -0.6616
vn 0.4509 0.6218 -0.6403
vn 0.4818 0.6218 -0.6174
vn 0.5115 0.6218 -0.5930
vn 0.5400 0.6218 -0.5672
vn 0.5672 0.6218 -0.5400
vn 0.5930 0.6218 -0.5115
vn 0.6174 0.6218 -0.4818
vn 0.6403 0.6218 -0.4509
vn 0.6616 0.6218 -0.4190
vn 0.6814 0.6218 -0.3860
vn 0.6995 0.6218 -0.3521
vn 0.7160 0.6218 -0.3174
vn 0.7307 0.6218 -0.2819
vn 0.7436 0.6218 -0.2457
vn 0.7548 0.6218 -0.2089
vn 0.7641 0.6218 -0.1716
vn 0.7716 0.6218 -0.1339
vn 0.7773 0.6218 -0.0959
vn 0.7810 0.6218 -0.0576
vn 0.7829 0.6218 -0.0192
vn 0.7829 0.6218 0.0192
vn 0.7810 0.6218 0.0576
vn 0.7773 0.6218 0.0959
vn 0.7716 0.6218 0.1339
vn 0.7641 0.6218 0.1716
vn 0.7548 0.6218 0.2089
vn 0.7436 0.6218 0.2457
vn 0.7307 0.6218 0.2819
vn 0.7160 0.6218 0.3174
vn 0.6995 0.6218 0.3521
vn 0.6814 0.6218 0.3860
vn 0.6616 0.6218 0.4190
vn 0.6403 0.6218 0.4509
vn 0.6174 0.6218 0.4818
vn 0.5930 0.6218 0.5115
vn 0.5672 0.6218 0.5400
vn 0.5400 0.6218 0.5672
vn 0.5115 0.6218 0.5930
vn 0.4818 0.6218 0.6174
vn 0.4509 0.6218 0.6403
vn 0.4190 0.6218 0.6616
vn 0.3860 0.6218 0.6814
vn 0.3521 0.6218 0.6995
vn 0.3174 0.6218 0.7160
vn 0.2819 0.6218 0.7307
vn 0.2457 0.6218 0.7436
vn 0.2089 0.6218 0.7548
vn 0.1716 0.6218 0.7641
vn 0.1339 0.6218 0.7716
vn 0.0959 0.6218 0.7773
vn 0.0576 0.6218 0.7810
vn 0.0192 0.6218 0.7829
vn -0.0192 0.6218 0.7829
vn -0.0576 0.6218 0.7810
vn -0.0959 0.6218 0.7773
vn -0.1339 0.6218 0.7716
vn -0.1716 0.6218 0.7641
vn -0.2089 0.6218 0.7548
vn -0.2457 0.6218 0.7436
vn -0.2818 0.6218 0.7307
vn -0.3174 0.6218 0.7160
vn -0.3521 0.6218 0.6995
vn -0.3860 0.6218 0.6814
vn -0.4190 0.6218 0.6616
vn -0.4509 0.6218 0.6403
vn -0.4818 0.6218 0.6174
vn -0.5115 0.6218 0.5930
vn -0.5400 0.6218 0.5672
vn -0.5672 0.6218 0.5400
vn -0.5930 0.6218 0.5115
vn -0.6174 0.6218 0.4818
vn -0.6403 0.6218 0.4509
vn -0.6616 0.6218 0.4190
vn -0.6814 0.6218 0.3860
vn -0.6995 0.6218 0.3521
vn -0.7160 0.6218 0.3174
vn -0.7307 0.6218 0.2819
vn -0.7436 0.6218 0.2457
vn -0.7548 0.6218 0.2089
vn -0.7641 0.6218 0.1716
vn -0.7716 0.6218 0.1339
vn -0.7773 0.6218 0.0959
vn -0.7810 0.6218 0.0576
vn -0.7829 0.6218 0.0192
vn -0.7829 0.6218 -0.0192
vn -0.7810 0.6218 -0.0576
vn -0.7773 0.6218 -0.0959
vn -0.7716 0.6218 -0.1339
vn -0.7641 0.6218 -0.1716
vn -0.7548 0.6218 -0.2089
vn -0.7436 0.6218 -0.2457
vn -0.7307 0.6218 -0.2819
vn -0.7160 0.6218 -0.3174
vn -0.6995 0.6218 -0.3521
vn -0.6814 0.6218 -0.3860
vn -0.6616 0.6218 -0.4190
vn -0.6403 0.6218 -0.4509
vn -0.6174 0.6218 -0.4818
vn -0.5930 0.6218 -0.5115
vn -0.5672 0.6218 -0.5400
vn -0.5400 0.6218 -0.5672
vn -0.5115 0.6218 -0.5930
vn -0.4818 0.6218 -0.6174
vn -0.4509 0.6218 -0.6403
vn -0.4190 0.6218 -0.6616
vn -0.3860 0.6218 -0.6814
vn -0.3521 0.6218 -0.6995
vn -0.3174 0.6218 -0.7160
vn -0.2819 0.6218 -0.7307
vn -0.2457 0.6218 -0.7436
vn -0.2089 0.6218 -0.7548
vn -0.1716 0.6218 -0.7641
vn -0.1339 0.6218 -0.7716
vn -0.0959 0.6218 -0.7773
vn -0.0576 0.6218 -0.7810
vn -0.0192 0.6218 -0.7829
vn 0.0000 -1.0000 -0.0000
usemtl Default_OBJ.001
s 1
f 1/1/1 2/2/1 3/3/1
f 3/3/2 2/2/2 4/4/2
f 4/4/3 2/2/3 5/5/3
f 5/5/4 2/2/4 6/6/4
f 6/6/5 2/2/5 7/7/5
f 7/7/6 2/2/6 8/8/6
f 8/8/7 2/2/7 9/9/7
f 9/9/8 2/2/8 10/10/8
f 10/10/9 2/2/9 11/11/9
f 11/11/10 2/2/10 12/12/10
f 12/12/11 2/2/11 13/13/11
f 13/13/12 2/2/12 14/14/12
f 14/14/13 2/2/13 15/15/13
f 15/15/14 2/2/14 16/16/14
f 16/16/15 2/2/15 17/17/15
f 17/17/16 2/2/16 18/18/16
f 18/18/17 2/2/17 19/19/17
f 19/19/18 2/2/18 20/20/18
f 20/20/19 2/2/19 21/21/19
f 21/21/20 2/2/20 22/22/20
f 22/22/21 2/2/21 23/23/21
f 23/23/22 2/2/22 24/24/22
f 24/24/23 2/2/23 25/25/23
f 25/25/24 2/2/24 26/26/24
f 26/26/25 2/2/25 27/27/25
f 27/27/26 2/2/26 28/28/26
f 28/28/27 2/2/27 29/29/27
f 29/29/28 2/2/28 30/30/28
f 30/30/29 2/2/29 31/31/29
f 31/31/30 2/2/30 32/32/30
f 32/32/31 2/2/31 33/33/31
f 33/33/32 2/2/32 34/34/32
f 34/34/33 2/2/33 35/35/33
f 35/35/34 2/2/34 36/36/34
f 36/36/35 2/2/35 37/37/35
f 37/37/36 2/2/36 38/38/36
f 38/38/37 2/2/37 39/39/37
f 39/39/38 2/2/38 40/40/38
f 40/40/39 2/2/39 41/41/39
f 41/41/40 2/2/40 42/42/40
f 42/42/41 2/2/41 43/43/41
f 43/43/42 2/2/42 44/44/42
f 44/44/43 2/2/43 45/45/43
f 45/45/44 2/2/44 46/46/44
f 46/46/45 2/2/45 47/47/45
f 47/47/46 2/2/46 48/48/46
f 48/48/47 2/2/47 49/49/47
f 49/49/48 2/2/48 50/50/48
f 50/50/49 2/2/49 51/51/49
f 51/51/50 2/2/50 52/52/50
f 52/52/51 2/2/51 53/53/51
f 53/53/52 2/2/52 54/54/52
f 54/54/53 2/2/53 55/55/53
f 55/55/54 2/2/54 56/56/54
f 56/56/55 2/2/55 57/57/55
f 57/57/56 2/2/56 58/58/56
f 58/58/57 2/2/57 59/59/57
f 59/59/58 2/2/58 60/60/58
f 60/60/59 2/2/59 61/61/59
f 61/61/60 2/2/60 62/62/60
f 62/62/61 2/2/61 63/63/61
f 63/63/62 2/2/62 64/64/62
f 64/64/63 2/2/63 65/65/63
f 65/65/64 2/2/64 66/66/64
f 66/66/65 2/2/65 67/67/65
f 67/67/66 2/2/66 68/68/66
f 68/68/67 2/2/67 69/69/67
f 69/69/68 2/2/68 70/70/68
f 70/70/69 2/2/69 71/71/69
f 71/71/70 2/2/70 72/72/70
f 72/72/71 2/2/71 73/73/71
f 73/73/72 2/2/72 74/74/72
f 74/74/73 2/2/73 75/75/73
f 75/75/74 2/2/74 76/76/74
f 76/76/75 2/2/75 77/77/75
f 77/77/76 2/2/76 78/78/76
f 78/78/77 2/2/77 79/79/77
f 79/79/78 2/2/78 80/80/78
f 80/80/79 2/2/79 81/81/79
f 81/81/80 2/2/80 82/82/80
f 82/82/81 2/2/81 83/83/81
f 83/83/82 2/2/82 84/84/82
f 84/84/83 2/2/83 85/85/83
f 85/85/84 2/2/84 86/86/84
f 86/86/85 2/2/85 87/87/85
f 87/87/86 2/2/86 88/88/86
f 88/88/87 2/2/87 89/89/87
f 89/89/88 2/2/88 90/90/88
f 90/90/89 2/2/89 91/91/89
f 91/91/90 2/2/90 92/92/90
f 92/92/91 2/2/91 93/93/91
f 93/93/92 2/2/92 94/94/92
f 94/94/93 2/2/93 95/95/93
f 95/95/94 2/2/94 96/96/94
f 96/96/95 2/2/95 97/97/95
f 97/97/96 2/2/96 98/98/96
f 98/98/97 2/2/97 99/99/97
f 99/99/98 2/2/98 100/100/98
f 100/100/99 2/2/99 101/101/99
f 101/101/100 2/2/100 102/102/100
f 102/102/101 2/2/101 103/103/101
f 103/103/102 2/2/102 104/104/102
f 104/104/103 2/2/103 105/105/103
f 105/105/104 2/2/104 106/106/104
f 106/106/105 2/2/105 107/107/105
f 107/107/106 2/2/106 108/108/106
f 108/108/107 2/2/107 109/109/107
f 109/109/108 2/2/108 110/110/108
f 110/110/109 2/2/109 111/111/109
f 111/111/110 2/2/110 112/112/110
f 112/112/111 2/2/111 113/113/111
f 113/113/112 2/2/112 114/114/112
f 114/114/113 2/2/113 115/115/113
f 115/115/114 2/2/114 116/116/114
f 116/116/115 2/2/115 117/117/115
f 117/117/116 2/2/116 118/118/116
f 118/118/117 2/2/117 119/119/117
f 119/119/118 2/2/118 120/120/118
f 120/120/119 2/2/119 121/121/119
f 121/121/120 2/2/120 122/122/120
f 122/122/121 2/2/121 123/123/121
f 123/123/122 2/2/122 124/124/122
f 124/124/123 2/2/123 125/125/123
f 125/125/124 2/2/124 126/126/124
f 126/126/125 2/2/125 127/127/125
f 127/127/126 2/2/126 128/128/126
f 128/128/127 2/2/127 129/129/127
f 129/129/128 2/2/128 1/1/128
f 65/130/129 97/131/129 129/132/129
f 129/132/129 1/133/129 3/134/129
f 3/134/129 4/135/129 129/132/129
f 4/135/129 5/136/129 129/132/129
f 5/136/129 6/137/129 9/138/129
f 6/137/129 7/139/129 9/138/129
f 7/139/129 8/140/129 9/138/129
f 9/138/129 10/141/129 11/142/129
f 11/142/129 12/143/129 13/144/129
f 13/144/129 14/145/129 17/146/129
f 14/145/129 15/147/129 17/146/129
f 15/147/129 16/148/129 17/146/129
f 17/146/129 18/149/129 19/150/129
f 19/150/129 20/151/129 21/152/129
f 21/152/129 22/153/129 23/154/129
f 23/154/129 24/155/129 21/152/129
f 24/155/129 25/156/129 21/152/129
f 25/156/129 26/157/129 27/158/129
f 27/158/129 28/159/129 25/156/129
f 28/159/129 29/160/129 25/156/129
f 29/160/129 30/161/129 31/162/129
f 31/162/129 32/163/129 33/164/129
f 33/164/129 34/165/129 35/166/129
f 35/166/129 36/167/129 33/164/129
f 36/167/129 37/168/129 33/164/129
f 37/168/129 38/169/129 39/170/129
f 39/170/129 40/171/129 37/168/129
f 40/171/129 41/172/129 37/168/129
f 41/172/129 42/173/129 43/174/129
f 43/174/129 44/175/129 45/176/129
f 45/176/129 46/177/129 49/178/129
f 46/177/129 47/179/129 49/178/129
f 47/179/129 48/180/129 49/178/129
f 49/178/129 50/181/129 53/182/129
f 50/181/129 51/183/129 53/182/129
f 51/183/129 52/184/129 53/182/129
f 53/182/129 54/185/129 57/186/129
f 54/185/129 55/187/129 57/186/129
f 55/187/129 56/188/129 57/186/129
f 57/186/129 58/189/129 61/190/129
f 58/189/129 59/191/129 61/190/129
f 59/191/129 60/192/129 61/190/129
f 61/190/129 62/193/129 63/194/129
f 63/194/129 64/195/129 61/190/129
f 64/195/129 65/130/129 61/190/129
f 65/130/129 66/196/129 67/197/129
f 67/197/129 68/198/129 65/130/129
f 68/198/129 69/199/129 65/130/129
f 69/199/129 70/200/129 71/201/129
f 71/201/129 72/202/129 69/199/129
f 72/202/129 73/203/129 69/199/129
f 73/203/129 74/204/129 77/205/129
f 74/204/129 75/206/129 77/205/129
f 75/206/129 76/207/129 77/205/129
f 77/205/129 78/208/129 79/209/129
f 79/209/129 80/210/129 81/211/129
f 81/211/129 82/212/129 83/213/129
f 83/213/129 84/214/129 85/215/129
f 85/215/129 86/216/129 89/217/129
f 86/216/129 87/218/129 89/217/129
f 87/218/129 88/219/129 89/217/129
f 89/217/129 90/220/129 93/221/129
f 90/220/129 91/222/129 93/221/129
f 91/222/129 92/223/129 93/221/129
f 93/221/129 94/224/129 95/225/129
f 95/225/129 96/226/129 97/131/129
f 97/131/129 98/227/129 99/228/129
f 99/228/129 100/229/129 101/230/129
f 101/230/129 102/231/129 105/232/129
f 102/231/129 103/233/129 105/232/129
f 103/233/129 104/234/129 105/232/129
f 105/232/129 106/235/129 109/236/129
f 106/235/129 107/237/129 109/236/129
f 107/237/129 108/238/129 109/236/129
f 109/236/129 110/239/129 111/240/129
f 111/240/129 112/241/129 113/242/129
f 113/242/129 114/243/129 115/244/129
f 115/244/129 116/245/129 113/242/129
f 116/245/129 117/246/129 113/242/129
f 117/246/129 118/247/129 119/248/129
f 119/248/129 120/249/129 121/250/129
f 121/250/129 122/251/129 123/252/129
f 123/252/129 124/253/129 121/250/129
f 124/253/129 125/254/129 121/250/129
f 125/254/129 126/255/129 127/256/129
f 127/256/129 128/257/129 129/132/129
f 9/138/129 11/142/129 13/144/129
f 17/146/129 19/150/129 25/156/129
f 19/150/129 21/152/129 25/156/129
f 29/160/129 31/162/129 33/164/129
f 41/172/129 43/174/129 49/178/129
f 43/174/129 45/176/129 49/178/129
f 77/205/129 79/209/129 73/203/129
f 79/209/129 81/211/129 73/203/129
f 81/211/129 83/213/129 85/215/129
f 93/221/129 95/225/129 89/217/129
f 95/225/129 97/131/129 89/217/129
f 97/131/129 99/228/129 101/230/129
f 109/236/129 111/240/129 113/242/129
f 117/246/129 119/248/129 113/242/129
f 119/248/129 121/250/129 113/242/129
f 125/254/129 127/256/129 129/132/129
f 129/132/129 5/136/129 9/138/129
f 9/138/129 13/144/129 17/146/129
f 25/156/129 29/160/129 17/146/129
f 29/160/129 33/164/129 17/146/129
f 33/164/129 37/168/129 41/172/129
f 49/178/129 53/182/129 57/186/129
f 57/186/129 61/190/129 65/130/129
f 65/130/129 69/199/129 81/211/129
f 69/199/129 73/203/129 81/211/129
f 81/211/129 85/215/129 89/217/129
f 97/131/129 101/230/129 105/232/129
f 105/232/129 109/236/129 97/131/129
f 109/236/129 113/242/129 97/131/129
f 121/250/129 125/254/129 113/242/129
f 125/254/129 129/132/129 113/242/129
f 129/132/129 9/138/129 17/146/129
f 33/164/129 41/172/129 49/178/129
f 49/178/129 57/186/129 33/164/129
f 57/186/129 65/130/129 33/164/129
f 81/211/129 89/217/129 65/130/129
f 89/217/129 97/131/129 65/130/129
f 129/132/129 17/146/129 33/164/129
f 97/131/129 113/242/129 129/132/129
f 129/132/129 33/164/129 65/130/129
